<svg width="597" height="520" viewBox="0 0 597 520" fill="none" xmlns="http://www.w3.org/2000/svg">
<path d="M295.652 241.996C221.58 241.996 154.282 250.901 104.458 265.413V389.378C154.282 403.89 221.58 412.795 295.652 412.795C380.428 412.795 456.326 401.13 507.307 382.745V272.049C456.326 253.662 380.428 241.996 295.652 241.996Z" fill="#8F1F1D"/>
<path d="M510.619 354.196C508.45 348.196 508.015 340.604 509.854 333.284C513.146 320.179 522.471 312.915 530.682 317.059C532.718 318.088 534.493 319.721 535.964 321.796C536.098 321.796 536.233 321.796 536.366 321.805C536.366 321.805 561.436 351.689 538.231 387.082C537.726 389.09 495.164 438.693 485.311 440.272C478.862 441.305 493.69 389.629 510.619 354.196Z" fill="#8F1F1D"/>
<path d="M99.3064 348.332C102.289 342.912 103.334 335.509 101.679 327.835C98.7161 314.095 88.2249 304.702 78.2469 306.854C75.772 307.387 73.5623 308.582 71.6822 310.286C71.5236 310.253 71.3649 310.222 71.2068 310.2C71.2068 310.2 39.5305 333.807 64.4221 374.306C64.8751 376.411 111.606 435.551 123.119 439.448C130.655 441.998 116.79 387.383 99.3064 348.332Z" fill="#8F1F1D"/>
<path d="M55.9707 352.861L55.9746 352.87C56.0781 352.951 56.1743 353.024 55.9707 352.861Z" fill="#E23A26"/>
<path d="M558.841 309.439C558.346 307.715 557.853 305.992 557.343 304.283L574.609 279.27C576.37 276.726 576.731 273.419 575.582 270.517C574.434 267.63 571.93 265.56 568.965 265.053L539.767 260.098C538.637 257.79 537.451 255.517 536.262 253.262L548.527 225.18C549.79 222.318 549.523 218.993 547.85 216.398C546.184 213.789 543.354 212.265 540.339 212.384L510.709 213.46C509.174 211.463 507.616 209.483 506.026 207.54L512.836 177.44C513.525 174.383 512.654 171.184 510.526 168.964C508.409 166.751 505.333 165.836 502.408 166.554L473.547 173.648C471.679 171.997 469.778 170.366 467.856 168.768L468.897 137.867C469.008 134.739 467.55 131.766 465.045 130.031C462.544 128.285 459.365 128.021 456.63 129.319L429.705 142.119C427.536 140.875 425.356 139.643 423.153 138.452L418.395 108C417.913 104.915 415.927 102.295 413.147 101.098C410.377 99.8957 407.2 100.284 404.768 102.116L380.763 120.126C378.399 119.341 376.025 118.589 373.621 117.869L363.275 88.9931C362.223 86.0507 359.796 83.8887 356.839 83.281C353.891 82.6778 350.857 83.6985 348.813 85.9831L328.607 108.588C326.164 108.307 323.72 108.05 321.268 107.839L305.668 81.5529C304.086 78.8901 301.295 77.2695 298.287 77.2695C295.286 77.2695 292.489 78.8901 290.921 81.5529L275.315 107.839C272.863 108.05 270.407 108.307 267.969 108.588L247.762 85.9831C245.716 83.6985 242.671 82.6778 239.733 83.281C236.776 83.8955 234.346 86.0507 233.299 88.9931L222.944 117.869C220.547 118.589 218.172 119.348 215.803 120.126L191.806 102.116C189.367 100.278 186.191 99.89 183.413 101.098C180.645 102.295 178.652 104.915 178.172 108L173.411 138.452C171.209 139.643 169.028 140.868 166.854 142.119L139.933 129.319C137.199 128.016 134.008 128.285 131.518 130.031C129.017 131.766 127.555 134.739 127.669 137.867L128.702 168.768C126.786 170.366 124.89 171.997 123.011 173.648L94.156 166.554C91.2237 165.842 88.1519 166.751 86.0299 168.964C83.8944 171.184 83.0295 174.383 83.7154 177.44L90.5125 207.54C88.9357 209.491 87.3753 211.463 85.8459 213.46L56.2162 212.384C53.226 212.295 50.3719 213.789 48.7006 216.398C47.0271 218.993 46.7733 222.318 48.0192 225.18L60.2942 253.262C59.1018 255.517 57.9173 257.79 56.7778 260.098L27.5831 265.053C24.617 265.553 22.1163 267.623 20.9628 270.517C19.8165 273.419 20.189 276.726 21.9391 279.27L39.2088 304.283C39.076 304.724 38.9527 305.17 38.8205 305.614L29.3315 315.692L54.8454 351.734C54.8454 351.734 299.711 464.688 526.848 353.645C552.793 348.99 558.841 309.439 558.841 309.439Z" fill="#E33B26"/>
<path d="M341.921 297.267C341.921 297.267 372.369 271.043 395.731 303.738C395.731 303.738 412.147 345.564 388.645 362.659C388.645 362.659 350.745 385.996 334.835 356.188C334.835 356.188 314.371 331.808 341.921 297.267Z" fill="black"/>
<path d="M372.88 313.07C371.5 324.541 363.62 333.028 355.281 332.024C346.943 331.022 341.299 320.908 342.679 309.437C344.058 297.966 351.939 289.479 360.277 290.481C368.616 291.485 374.26 301.599 372.88 313.07Z" fill="white"/>
<path d="M219.087 285.961C219.087 285.961 267.696 271.078 274.807 318.203C274.807 318.203 281.608 372.951 230.153 369.806C230.153 369.806 166.506 349.421 219.087 285.961Z" fill="black"/>
<path d="M241.02 309.6C239.598 321.429 231.471 330.185 222.869 329.15C214.27 328.116 208.45 317.683 209.873 305.854C211.296 294.022 219.424 285.269 228.022 286.304C236.624 287.339 242.443 297.768 241.02 309.6Z" fill="white"/>
<path d="M62.7998 358.007C68.9711 350.994 83.964 342.5 82.8155 331.964C80.7599 313.098 65.1148 299.327 47.8716 301.207C43.5955 301.672 39.6233 303.059 36.0979 305.166C35.8374 305.106 35.5774 305.047 35.3169 305C35.3169 305 -22.9982 333.627 10.2401 390.902C10.5535 393.793 76.5542 478.499 95.09 484.949C107.222 489.171 83.8858 412.562 62.7998 358.007Z" fill="#E33B26"/>
<path d="M536.574 355.453C529.432 349.432 510.598 343.963 510.172 333.373C509.409 314.411 522.839 298.473 540.171 297.776C544.469 297.602 548.602 298.385 552.401 299.946C552.65 299.848 552.898 299.751 553.149 299.666C553.149 299.666 615.061 319.334 590.679 380.903C590.797 383.808 538.083 477.361 520.708 486.488C509.337 492.461 523.807 412.53 536.574 355.453Z" fill="#E33B26"/>
<path d="M107.557 358.764C107.557 358.764 106.779 436.022 182.491 453.262L198.278 421.546C198.278 421.546 143.416 426.853 139.196 358.764L107.557 358.764Z" fill="#E33B26"/>
<path d="M493.141 354.086C493.141 354.086 493.919 431.344 418.206 448.584L402.419 416.868C402.419 416.868 457.281 422.175 461.502 354.087H493.141" fill="#E33B26"/>
<path d="M438.447 432.884C427.052 405.344 390.281 394.409 356.318 408.463C326.423 420.831 308.692 448.433 312.638 473.65C336.242 473.283 361.56 471.753 386.205 468.182C386.205 468.182 371.666 491.682 350.272 512.192C364.658 515.905 381.436 514.875 397.582 508.195C431.546 494.142 449.842 460.424 438.447 432.884Z" fill="#E33B26"/>
<path d="M227.756 471.546C227.756 471.546 258.819 475.651 301.286 476.698C305.005 449.963 284.753 421.669 252.442 410.724C216.744 398.633 179.858 412.295 170.052 441.241C160.247 470.187 181.237 503.455 216.934 515.546C232.758 520.907 248.814 521.201 262.643 517.351C241.873 496.81 227.756 471.546 227.756 471.546Z" fill="#E33B26"/>
<path d="M465.814 200.067H137.131C133.187 200.067 129.986 196.866 129.986 192.922V178.632C129.986 174.687 133.187 171.486 137.131 171.486H465.814C469.758 171.486 472.959 174.687 472.959 178.632V192.922C472.959 196.866 469.758 200.067 465.814 200.067Z" fill="#FF832B"/>
<path d="M444.377 157.195V142.904C444.377 71.8657 386.801 14.2891 315.762 14.2891H287.181C216.143 14.2891 158.566 71.8657 158.566 142.904V157.195C158.566 165.083 152.164 171.485 144.275 171.485H458.668C450.779 171.485 444.377 165.083 444.377 157.195Z" fill="#FC6900"/>
<path d="M287.182 0H315.763C323.652 0 330.054 6.40217 330.054 14.2906V171.487H272.892V14.2906C272.892 6.40217 279.294 0 287.182 0Z" fill="#FC720F"/>
</svg>
